<svg enable-background="new 0 0 48 48" height="100" viewBox="0 0 48 48" width="100" xmlns="http://www.w3.org/2000/svg"><g id="_x34_3-Love"><g id="Layer_44"><path fill="#f05050" d="m40.1982422 12.4980469c-1.8691406-2.7197266-4.9570313-4.3427734-8.2597656-4.3427734-2.71875 0-5.4023438 1.0839844-7.8081055 3.1787109l-.1308594.1298828-.1762695-.1728516c-2.3588867-2.0517578-5.0429688-3.1357422-7.7617188-3.1357422-3.3032227 0-6.3911133 1.6230469-8.2597656 4.3427734-1.8916015 2.7519532-2.2519531 6.216797-.9887695 9.5078126 1.050293 2.7314453 3.3676758 5.0576172 5.8535156 7.3974609.6621094.6220703 1.3320313 1.2460938 2.0258789 1.8916016 2.3066406 2.1455078 4.9204102 4.5761719 8.3754883 8.0283203l.2304688.2304688c.1879883.1865234.4414063.2910156.7050781.2910156h.0239258c.2719727-.0068359.5302734-.1240234.7138672-.3251953.0629883-.0683594.1210938-.1259766.190918-.1962891 3.456543-3.4541016 6.0727539-5.8867188 8.3803673-8.0332031.6914101-.6435547 1.3603554-1.265625 2.0224648-1.8876953 2.4853516-2.3408203 4.8027344-4.6679688 5.8525352-7.3974609 1.262699-3.2890626.9023475-6.7548829-.9892541-9.506836z"/></g></g></svg>