<svg id="Layer_3" height="25" viewBox="0 0 32 32" width="25" xmlns="http://www.w3.org/2000/svg" data-name="Layer 3"><path fill="#F2F4F8" d="m29.679 14.265-2.937-2.711a1.114 1.114 0 0 0 -.113-.1l-9.95-9.185a1 1 0 0 0 -1.358 0l-9.95 9.181a1.114 1.114 0 0 0 -.113.1l-2.937 2.715a1 1 0 0 0 1.358 1.47l1.321-1.22v14.485a1 1 0 0 0 1 1h20a1 1 0 0 0 1-1v-14.485l1.321 1.22a1 1 0 0 0 .679.265 1 1 0 0 0 .679-1.735zm-4.679 13.735h-18v-15.331l9-8.308 9 8.308z"/><path fill="#F2F4F8" d="m13 25a1 1 0 0 0 1 1h4a1 1 0 0 0 0-2h-4a1 1 0 0 0 -1 1z"/></svg>