<svg id="Capa_1" enable-background="new 0 0 506.209 506.209" height="512" viewBox="0 0 506.209 506.209" width="512" xmlns="http://www.w3.org/2000/svg"><g id="XMLID_686_"><g><path d="m457.378 158.84h-1-14.59c-7.83 0-14.3-5.93-15.18-13.71-6.83-60.48-58.3-107.63-120.57-107.63h-105.87c-62.27 0-113.74 47.15-120.57 107.63-.88 7.78-7.35 13.71-15.18 13.71h-14.59-1c0-83.59 67.76-151.34 151.34-151.34h105.87c83.58 0 151.34 67.75 151.34 151.34z" fill="#efedef"/></g><g><g><path d="m457.378 227.98c-4.143 0-7.5-3.357-7.5-7.5v-61.64c0-79.313-64.526-143.84-143.84-143.84h-105.87c-79.313 0-143.84 64.526-143.84 143.84v55.641c0 4.143-3.358 7.5-7.5 7.5s-7.5-3.357-7.5-7.5v-55.641c0-87.585 71.255-158.84 158.84-158.84h105.87c87.585 0 158.84 71.255 158.84 158.84v61.641c0 4.142-3.358 7.499-7.5 7.499z" fill="#baafb9"/></g></g></g><path d="m478.534 249.042-3.45-39.159c-.369-4.191-3.879-7.405-8.086-7.405h-20.831c-4.207 0-7.717 3.214-8.086 7.405l-1.855 21.05-4.043 47.13h46.351z" fill="#ee6161"/><path d="m69.983 230.932-1.855-21.05c-.369-4.191-3.879-7.405-8.086-7.405h-20.83c-4.207 0-7.717 3.214-8.086 7.405l-3.45 39.159v30.408h42.864z" fill="#ee6161"/><path d="m406.669 220.054c-38.806-39.17-98.857-43.812-142.705-13.938-6.789 4.626-15.724 4.626-22.514 0-43.848-29.874-103.899-25.233-142.704 13.938-42.185 42.583-43.946 110.509-5.296 155.216l108.326 109.608c28.109 28.441 73.754 28.441 101.863 0l108.326-109.608c38.65-44.707 36.89-112.633-5.296-155.216z" fill="#fe8f83"/><g><path d="m283.734 478.363-108.326-109.608c-38.65-44.707-36.889-112.634 5.296-155.216 9.148-9.234 19.486-16.524 30.505-21.921-38.511-11.761-82.022-2.291-112.463 28.436-42.185 42.583-43.946 110.509-5.296 155.216l108.326 109.608c26.397 26.709 68.256 28.332 96.537 4.876-5.207-3.082-10.116-6.875-14.579-11.391z" fill="#fe7c66"/></g><path d="m60.627 351.631h-34.156c-6.927 0-12.542-5.615-12.542-12.542v-77.507c0-6.927 5.615-12.542 12.542-12.542h34.156z" fill="#efedef"/><path d="m90.247 369.813h-18.554c-12.187 0-22.066-9.879-22.066-22.066v-94.822c0-12.187 9.879-22.066 22.066-22.066h18.554z" fill="#baafb9"/><path d="m441.582 351.631h38.156c6.927 0 12.542-5.615 12.542-12.542v-77.507c0-6.927-5.615-12.542-12.542-12.542h-38.156z" fill="#efedef"/><path d="m415.962 369.813h18.554c12.187 0 22.066-9.879 22.066-22.066v-94.822c0-12.187-9.879-22.066-22.066-22.066h-18.554z" fill="#baafb9"/><g><path d="m107.563 453.605c-18.063 0-32.757-14.694-32.757-32.757 0-4.143 3.358-7.5 7.5-7.5s7.5 3.357 7.5 7.5c0 9.791 7.966 17.757 17.757 17.757 4.142 0 7.5 3.357 7.5 7.5s-3.358 7.5-7.5 7.5z" fill="#fe8f83"/></g><g><path d="m107.563 497.105c-42.048 0-76.257-34.209-76.257-76.257 0-4.143 3.358-7.5 7.5-7.5s7.5 3.357 7.5 7.5c0 33.777 27.479 61.257 61.257 61.257 4.142 0 7.5 3.357 7.5 7.5s-3.358 7.5-7.5 7.5z" fill="#fe8f83"/></g><g><path d="m398.646 453.605c-4.143 0-7.5-3.357-7.5-7.5s3.357-7.5 7.5-7.5c9.791 0 17.757-7.966 17.757-17.757 0-4.143 3.357-7.5 7.5-7.5s7.5 3.357 7.5 7.5c0 18.063-14.694 32.757-32.757 32.757z" fill="#fe8f83"/></g><g><path d="m398.646 497.105c-4.143 0-7.5-3.357-7.5-7.5s3.357-7.5 7.5-7.5c33.777 0 61.257-27.479 61.257-61.257 0-4.143 3.357-7.5 7.5-7.5s7.5 3.357 7.5 7.5c0 42.048-34.209 76.257-76.257 76.257z" fill="#fe8f83"/></g></svg>