<svg enable-background="new 0 0 512 512" height="30" viewBox="0 0 512 512" width="30" xmlns="http://www.w3.org/2000/svg"><path fill="#5A6A7A" d="m366.763 52.242c-55.361 0-84.61 26.631-109.467 70.722-24.856-44.091-54.105-70.722-109.466-70.722-65.874 0-119.466 53.593-119.466 119.467 0 40.249 13.648 76.775 42.952 114.948 25.864 33.693 62.063 66.07 100.388 100.348 25.502 22.809 51.872 46.395 78.522 73.045 1.953 1.952 4.512 2.929 7.071 2.929 2.56 0 5.118-.977 7.071-2.929 26.688-26.689 53.104-50.305 78.65-73.143 38.32-34.258 74.515-66.616 100.381-100.295 29.308-38.16 42.958-74.672 42.958-114.903-.001-65.874-53.65-119.467-119.594-119.467zm-37.075 319.755c-23.507 21.015-47.744 42.683-72.393 66.901-24.606-24.18-48.797-45.816-72.26-66.801-76.358-68.296-136.672-122.241-136.672-200.388 0-54.847 44.62-99.467 99.466-99.467 46.532 0 71.897 19.322 100.522 76.572 1.694 3.388 5.157 5.528 8.944 5.528 3.788 0 7.25-2.141 8.944-5.528 28.626-57.25 53.991-76.572 100.522-76.572 54.916 0 99.594 44.62 99.594 99.467.001 78.106-60.31 132.024-136.667 200.288z"/></svg>